<svg xmlns="http://www.w3.org/2000/svg" version="1.1" xmlns:xlink="http://www.w3.org/1999/xlink" width="800px" height="800px"><svg fill="#000000" height="800px" width="800px" version="1.1" id="SvgjsSvg1044" xmlns="http://www.w3.org/2000/svg" xmlns:xlink="http://www.w3.org/1999/xlink" viewBox="0 0 24 24" xml:space="preserve">
<g id="SvgjsG1043">
	<g>
		<path d="M17,22H7c-2.8,0-5-2.2-5-5V7c0-2.8,2.2-5,5-5h10c2.8,0,5,2.2,5,5v10C22,19.7,19.8,22,17,22z M7,4C5.3,4,4,5.3,4,7v10
			c0,1.7,1.3,3,3,3h10c1.7,0,3-1.3,3-3V7c0-1.7-1.3-3-3-3H7z"></path>
	</g>
	<g>
		<path d="M14,9h-4c-0.6,0-1,0.4-1,1v4c0,0.6,0.4,1,1,1h4c0.6,0,1-0.4,1-1v-4C15,9.4,14.6,9,14,9z"></path>
	</g>
</g>
</svg><style>@media (prefers-color-scheme: light) { :root { filter: none; } }
@media (prefers-color-scheme: dark) { :root { filter: none; } }
</style></svg>