<?xml version="1.0" encoding="UTF-8"?>
<!DOCTYPE svg PUBLIC "-//W3C//DTD SVG 1.1//EN" "http://www.w3.org/Graphics/SVG/1.1/DTD/svg11.dtd">
<!-- Creator: CorelDRAW 2017 -->
<svg xmlns="http://www.w3.org/2000/svg" xml:space="preserve" width="0.960535in" height="0.960535in" version="1.1" style="shape-rendering:geometricPrecision; text-rendering:geometricPrecision; image-rendering:optimizeQuality; fill-rule:evenodd; clip-rule:evenodd"
viewBox="0 0 176.13 176.13"
 xmlns:xlink="http://www.w3.org/1999/xlink">
 <defs>
  <style type="text/css">
   <![CDATA[
    .fil3 {fill:#005F7A}
    .fil2 {fill:#E36013}
    .fil0 {fill:#F8D7C4}
    .fil1 {fill:white}
    .fil4 {fill:#3F879B;fill-opacity:0.749020}
    .fil5 {fill:#EA874D}
   ]]>
  </style>
 </defs>
 <g id="Layer_x0020_1">
  <metadata id="CorelCorpID_0Corel-Layer"/>
  <circle class="fil0" cx="88.07" cy="88.07" r="88.07"/>
  <path class="fil1" d="M88.07 0c48.64,0 88.07,39.43 88.07,88.07 0,20.01 -6.68,38.46 -17.92,53.25 -1.14,0.04 -2.28,0.06 -3.43,0.06 -55.44,0 -100.38,-44.94 -100.38,-100.38 0,-13.02 2.48,-25.46 6.99,-36.88 8.42,-2.67 17.38,-4.12 26.68,-4.12z"/>
  <path class="fil2" d="M88.07 0c48.64,0 88.07,39.43 88.07,88.07 0,19.85 -6.57,38.17 -17.65,52.9 -49.45,-4.88 -88.08,-46.59 -88.08,-97.32 0,-15.56 3.64,-30.26 10.1,-43.32 2.49,-0.21 5.01,-0.33 7.56,-0.33z"/>
  <path class="fil3" d="M0.11 83.57c49.47,3.05 88.99,42.88 91.55,92.48 -1.19,0.05 -2.39,0.08 -3.6,0.08 -48.64,0 -88.07,-39.43 -88.07,-88.07 0,-1.51 0.04,-3 0.11,-4.49z"/>
  <path class="fil4" d="M0.84 83.63c25.9,15.33 43.27,43.55 43.27,75.83 0,1.63 -0.05,3.25 -0.14,4.85 -26.29,-15.24 -43.97,-43.67 -43.97,-76.25 0,-1.51 0.04,-3 0.11,-4.49 0.24,0.02 0.48,0.04 0.72,0.05z"/>
  <path class="fil5" d="M157.59 140.87c-31.02,-13.62 -52.69,-44.61 -52.69,-80.67 0,-19.95 6.64,-38.35 17.82,-53.12 31.41,13.46 53.41,44.65 53.41,80.98 0,19.85 -6.57,38.17 -17.65,52.9 -0.3,-0.03 -0.59,-0.07 -0.89,-0.1z"/>
 </g>
</svg>
