<?xml version="1.0" encoding="utf-8"?>
<!-- Generator: Adobe Illustrator 22.0.0, SVG Export Plug-In . SVG Version: 6.00 Build 0)  -->
<svg version="1.1" id="Layer_1" xmlns="http://www.w3.org/2000/svg" xmlns:xlink="http://www.w3.org/1999/xlink" x="0px" y="0px"
	 viewBox="0 0 180 180" style="enable-background:new 0 0 180 180;" xml:space="preserve">
<style type="text/css">
	.st0{fill:#E66A70;}
	.st1{fill:#D82028;}
	.st2{fill:#A31A21;}
	.st3{fill:#F0A6A9;}
	.st4{fill:#E04C53;}
	.st5{fill:#FFFFFF;}
	.st6{opacity:0.5;fill:#FFFFFF;}
	.st7{fill:#E8797E;}
	.st8{fill:#F7D2D4;}
	.st9{fill:#E04D53;}
</style>
<circle class="st7" cx="90" cy="90" r="90"/>
<path class="st2" d="M11.1,133.4C26.5,161.2,56,180,90,180c49.7,0,90-40.3,90-90c0-19-5.9-36.7-16-51.3
	C133.1,92.5,76.6,129.6,11.1,133.4z"/>
<path class="st7" d="M55,21.3c50.1,0,94.8,22.8,124.4,58.5C174.4,34.9,136.3,0,90,0C66.7,0,45.5,8.8,29.5,23.4
	C37.8,22,46.4,21.3,55,21.3z"/>
<path class="st8" d="M11.1,133.4c2.5,4.5,5.3,8.7,8.5,12.7c11.8,2,23.9,3.1,36.3,3.1c45.2,0,87.2-14.1,121.6-38.2
	c1.6-6.7,2.5-13.8,2.5-21c0-19-5.9-36.7-16-51.3C133.1,92.5,76.6,129.6,11.1,133.4z"/>
<path class="st2" d="M41.1,49.7c51.4,0,99.1,15.5,138.9,42c0-0.6,0-1.2,0-1.7c0-3.4-0.2-6.8-0.6-10.1C149.8,44.1,105.1,21.3,55,21.3
	c-8.7,0-17.2,0.7-25.6,2c-8.8,8-15.9,17.6-21,28.4C19.2,50.4,30,49.7,41.1,49.7z"/>
<path class="st9" d="M0.8,78.2C0.3,82,0,86,0,90c0,49.7,40.3,90,90,90c22.3,0,42.7-8.1,58.4-21.5C83.4,158,27.4,125.4,0.8,78.2z"/>
<path class="st1" d="M55,21.3c-8.7,0-17.2,0.7-25.6,2C11.4,39.8,0,63.6,0,90c0,20.6,6.9,39.5,18.5,54.7
	c22-35.8,61.5-59.6,106.6-59.6c19.6,0,38.1,4.5,54.6,12.5c0.2-2.5,0.3-5,0.3-7.6c0-3.4-0.2-6.8-0.6-10.1
	C149.8,44.1,105.1,21.3,55,21.3z"/>
</svg>
