<svg xmlns="http://www.w3.org/2000/svg" xmlns:xlink="http://www.w3.org/1999/xlink" width="50" height="50" viewBox="0 0 50 50">
  <defs>
    <clipPath id="clip-path">
      <path id="Path_23" data-name="Path 23" d="M25.3.3a25,25,0,1,1-25,25,25,25,0,0,1,25-25Z" transform="translate(255.7 67.7)" fill="none" stroke="#e6e6e6" stroke-miterlimit="2.613" stroke-width="0.59" clip-rule="evenodd"/>
    </clipPath>
  </defs>
  <g id="paribasbaru" transform="translate(-256 -68)" clip-path="url(#clip-path)">
    <path id="Path_20" data-name="Path 20" d="M25.3.3a25,25,0,1,1-25,25,25,25,0,0,1,25-25Z" transform="translate(255.7 67.7)" fill="#3fb086" fill-rule="evenodd"/>
    <path id="Path_21" data-name="Path 21" d="M-8.064,22.558l23.473-.575,2.1,13.551,20.42-6.87,6.106,21.561,3.431-13.551-1.6-21.144L30.809,21.983l4.242-7.444-22.391.378L37.931,7.105,21.8-4.825-14.17,10.148l6.106,12.4Z" transform="translate(257.76 67.955)" fill="#00965e" fill-rule="evenodd"/>
    <path id="Path_22" data-name="Path 22" d="M-15.5,41.815,7.785,33.23l6.3,25L34.689,39.722,37.553,67.4,9.123,72.741-15.491,41.823Z" transform="translate(257.949 63.012)" fill="#7ecaad" fill-rule="evenodd"/>
    <path id="Path_28" data-name="Path 28" d="M187.885,62.838l15.242,9.673-23.742,7.914h23.742L195.8,89.8l17.294-7.914,3.224,18.759L221.3,76.028l7.035-8.207-15.242,1.759Z" transform="translate(88 3)" fill="#007348"/>
  </g>
</svg>
