<svg width="40" height="40" viewBox="0 0 40 40" fill="none" xmlns="http://www.w3.org/2000/svg">
<path d="M39.4016 24.8381C36.7301 35.5525 25.877 42.0731 15.1601 39.4012C4.44772 36.7301 -2.07358 25.8775 0.599038 15.1639C3.26931 4.44838 14.1225 -2.07268 24.836 0.598468C35.5521 3.26961 42.073 14.1234 39.4013 24.8383L39.4015 24.8381H39.4016Z" fill="#FFCF3F"/>
<path d="M9.77832 24.3648L11.2097 19.1457L18.3992 19.1367L19.8438 24.3514L9.77832 24.3648Z" fill="#06251C"/>
<path d="M20.6016 24.3492L22.0329 19.1301L29.2224 19.1211L30.667 24.3367L20.6016 24.3492Z" fill="#06251C"/>
<path d="M15.5605 18.1969L16.9919 12.9786L24.1814 12.9688L25.626 18.1843L15.5605 18.1969Z" fill="#06251C"/>
</svg>
