<svg width="48" height="48" viewBox="0 0 48 48" fill="none" xmlns="http://www.w3.org/2000/svg">
<path fill-rule="evenodd" clip-rule="evenodd" d="M24 48C37.2543 48 48 37.2543 48 24C48 10.7457 37.2543 0 24 0C10.7457 0 0 10.7457 0 24C0 37.2543 10.7457 48 24 48Z" fill="#6F5091"/>
<g clip-path="url(#clip0_105_47452)">
<path fill-rule="evenodd" clip-rule="evenodd" d="M36.2156 7.59635C29.7099 6.81064 24.3184 8.21921 19.2613 12.1535C15.0613 15.4163 11.827 20.6563 10.5756 25.8192C9.69273 29.4592 9.52416 32.3563 9.90987 35.7506C9.99559 36.5135 10.5213 37.1135 11.267 37.2992C12.6042 37.6335 13.9413 37.7392 15.2784 37.6106C15.0556 32.4992 15.5184 28.8478 17.3442 24.1049C19.4327 18.6763 23.5756 13.5563 28.6242 10.5878C31.1299 9.11349 33.6413 8.12206 36.2127 7.59349L36.2156 7.59635Z" fill="#3F2A56"/>
<path fill-rule="evenodd" clip-rule="evenodd" d="M15.2802 37.6112C15.0545 32.4997 15.5173 28.8483 17.343 24.1054C18.3173 21.5797 19.663 19.314 21.1802 17.3254C23.183 14.6969 25.7688 12.2683 28.6259 10.5883C34.663 7.03973 40.703 6.28545 47.6516 8.08259C48.2688 11.2969 47.6202 16.7883 46.7373 19.8683C45.2345 25.1112 43.0345 28.5654 39.4373 32.4854C34.5859 37.4912 27.6859 40.2597 20.723 39.8569C19.9145 39.8112 19.2973 39.7454 18.7888 39.6712C27.0173 37.1054 33.623 26.4226 33.623 26.4226C34.3773 24.914 32.9716 24.4026 32.9716 24.4026C32.0573 23.9997 31.3859 24.9112 31.3859 24.9112C30.4059 26.3883 23.3088 37.1912 15.2802 37.6112Z" fill="#26D07C"/>
</g>
<defs>
<clipPath id="clip0_105_47452">
<rect width="38.18" height="32.7514" fill="white" transform="translate(9.71484 7.14355)"/>
</clipPath>
</defs>
</svg>
