<?xml version="1.0" encoding="UTF-8"?>
<!DOCTYPE svg PUBLIC "-//W3C//DTD SVG 1.1//EN" "http://www.w3.org/Graphics/SVG/1.1/DTD/svg11.dtd">
<!-- Creator: CorelDRAW 2017 -->
<svg xmlns="http://www.w3.org/2000/svg" xml:space="preserve" width="5in" height="5in" version="1.1" style="shape-rendering:geometricPrecision; text-rendering:geometricPrecision; image-rendering:optimizeQuality; fill-rule:evenodd; clip-rule:evenodd"
viewBox="0 0 6102.25 6102.25"
 xmlns:xlink="http://www.w3.org/1999/xlink">
 <defs>
  <style type="text/css">
   <![CDATA[
    .str0 {stroke:#3F598F;stroke-width:84.75;stroke-miterlimit:2.61313}
    .str1 {stroke:#FCB514;stroke-width:84.75;stroke-miterlimit:2.61313}
    .fil7 {fill:none}
    .fil5 {fill:#003A70}
    .fil1 {fill:#3F598F}
    .fil0 {fill:#8C97B9}
    .fil2 {fill:#F3A61E}
    .fil4 {fill:#FCB514}
    .fil6 {fill:#003A70;fill-rule:nonzero}
    .fil3 {fill:#F3A61E;fill-rule:nonzero}
   ]]>
  </style>
   <clipPath id="id0">
    <path d="M3051.12 0c1685.09,0 3051.12,1366.04 3051.12,3051.12 0,1685.09 -1366.04,3051.12 -3051.12,3051.12 -1685.09,0 -3051.12,-1366.04 -3051.12,-3051.12 0,-1685.09 1366.04,-3051.12 3051.12,-3051.12z"/>
   </clipPath>
 </defs>
 <g id="Layer_x0020_1">
  <metadata id="CorelCorpID_0Corel-Layer"/>
  <g>
  </g>
  <g style="clip-path:url(#id0)">
   <g>
    <path class="fil0" d="M5361.01 4810.18l-14.37 -20.76c-3.2,-4.79 -7.99,-11.18 -12.78,-17.57 -108.59,-138.93 -445.56,-330.57 -883.13,-175.67 0,0 -1165.78,571.72 -1523.51,748.98 -755.36,311.41 -1210.5,137.34 -1493.16,-110.19 -44.71,-38.33 -83.04,-78.25 -119.77,-118.18 -67.07,-73.46 -121.37,-148.52 -167.68,-213.99l-28.74 -44.72c-7.99,-12.78 -20.76,-27.15 -33.54,-41.52 -103.8,-111.79 -341.75,-239.54 -651.56,-201.22 533.38,891.11 1507.53,1486.78 2620.62,1486.78 974.14,0 1841.3,-456.74 2400.24,-1165.79 -6.39,-7.98 -11.18,-15.97 -17.57,-23.95l-75.06 -102.21z"/>
    <path class="fil1 str0" d="M4426.79 3949.41c-1.6,0 -1.6,0 -1.6,1.6l-1076.35 624.41c-103.8,57.49 -174.07,91.02 -279.47,94.22 -190.04,4.79 -349.74,-94.22 -450.35,-247.53l-23.95 -38.33c-1.6,-3.19 -3.2,-7.99 -6.39,-11.18l0 0c-6.39,-9.58 -12.78,-20.76 -19.16,-31.94 -207.61,-332.17 -677.11,-832.02 -1628.91,-309.81 -1.6,1.6 -330.57,190.04 -629.2,364.11 38.33,76.65 78.25,151.71 122.97,225.17 309.81,-38.33 547.76,91.03 651.56,201.22 12.78,14.37 23.96,27.15 33.54,41.52l28.74 44.71c44.72,65.48 100.61,140.53 167.68,213.99 35.13,39.92 75.06,79.85 119.77,118.18 284.26,247.53 737.8,421.6 1493.16,110.19 357.72,-177.26 1523.51,-748.98 1523.51,-748.98 437.57,-154.91 774.53,36.73 883.12,175.66 4.79,4.79 9.58,11.18 12.78,17.57l14.37 20.76 75.06 103.8c6.39,7.99 11.18,15.97 17.57,23.96 114.98,-146.92 217.19,-305.02 305.02,-471.1 63.88,-122.97 121.37,-252.32 167.68,-384.87 -257.12,-297.04 -718.64,-566.92 -1501.15,-137.34z"/>
    <path class="fil2" d="M4564.13 399.36c-242.73,-138.93 -506.24,-244.33 -784.11,-313.01 -233.15,-55.89 -477.49,-86.23 -728.21,-86.23 -900.69,0 -1711.95,391.26 -2270.89,1012.47 -233.15,258.71 -421.6,557.34 -555.74,884.72 116.58,-67.07 223.58,-127.76 305.02,-174.07 17.57,-7.99 35.13,-15.97 52.7,-23.96 4.79,-3.19 11.18,-4.79 15.97,-6.39 12.78,-4.79 23.95,-9.58 35.13,-14.38 6.39,-3.19 11.18,-4.79 17.57,-6.39 11.18,-4.79 23.95,-9.58 35.13,-12.78 4.79,-1.6 9.58,-3.19 15.97,-6.39 15.97,-6.39 31.94,-11.18 47.91,-17.57 1.6,0 3.2,0 3.2,-1.6 14.37,-4.79 28.74,-9.58 43.12,-14.37 4.79,-1.6 11.18,-3.2 15.97,-4.79 9.58,-3.2 20.76,-6.39 30.34,-7.99 6.39,-1.6 11.18,-3.2 17.57,-4.79 9.58,-3.2 20.76,-4.79 30.34,-6.39 4.79,-1.6 9.58,-1.6 14.37,-3.19 14.37,-3.2 28.74,-6.39 43.12,-7.99 3.19,0 6.39,-1.6 9.58,-1.6 11.18,-1.6 22.36,-3.19 33.54,-4.79 4.79,0 11.18,-1.6 15.97,-1.6 7.99,-1.6 15.97,-1.6 25.55,-3.2 6.39,0 11.18,-1.6 17.57,-1.6 7.99,0 15.97,-1.6 23.95,-1.6 4.79,0 11.18,0 15.97,-1.6 11.18,0 20.76,-1.6 31.94,-1.6 6.39,0 12.78,0 19.16,0 1.6,0 3.2,0 4.79,0 6.39,0 11.18,0 17.57,0 6.39,0 12.78,0 17.57,0 6.39,0 12.78,0 17.57,1.6 6.39,0 12.78,1.6 19.16,1.6 4.79,0 11.18,1.6 15.97,1.6 6.39,0 12.78,1.6 19.17,1.6 4.79,0 9.58,1.6 14.37,1.6 12.78,1.6 25.55,3.19 36.73,6.39 3.19,0 7.99,1.6 11.18,1.6 4.79,1.6 9.58,1.6 14.37,3.19 1.6,0 3.2,1.6 6.39,1.6 3.19,1.6 7.99,1.6 11.18,3.19 6.39,1.6 14.38,3.2 20.76,4.79 3.2,1.6 6.39,1.6 9.58,3.2 25.55,6.39 49.51,15.97 71.86,23.95 1.6,0 1.6,0 3.2,1.6 7.99,3.19 14.37,6.39 22.36,9.58 1.6,0 3.19,1.6 4.79,1.6 7.99,3.19 14.38,6.39 22.36,9.58 0,0 1.6,0 1.6,1.6 31.94,15.97 62.28,33.54 91.02,51.11l0 0 0 0c15.97,11.18 31.94,22.36 47.91,33.54 284.26,79.85 651.56,55.9 1130.65,-174.07 392.86,-228.37 1672.03,-959.78 1672.03,-959.78 113.39,-46.31 218.78,-68.67 317.8,-73.46 -65.46,-43.11 -130.94,-84.63 -199.61,-124.56z"/>
    <path class="fil3" d="M4200.31 177.08c133.62,53.33 262.18,115.32 384.84,185.53l0.17 0.17c32.75,19.04 66.89,39.81 102.17,61.91 34.24,21.45 67.14,42.71 99.43,63.97l-21.19 77.47c-47.12,2.28 -95.81,8.75 -146.22,20.17 -49.75,11.26 -101.02,27.24 -153.94,48.64 -46.31,26.48 -1291.87,738.73 -1670.46,958.81l-2.98 1.49c-243.83,117.04 -459.71,181.72 -651.13,207.02 -193.39,25.56 -361.91,11.05 -509.15,-30.3l-12.75 -6.13 -45.95 -32.17c-14.2,-8.67 -28.58,-17.24 -42.96,-25.37 -15.21,-8.61 -30.23,-16.72 -44.72,-23.96l-11.1 -5.55 -5.38 -2.37c-3.08,-0.83 -5.62,-1.96 -8.05,-3.14l-1.08 -0.22c-2.35,-0.94 -7.44,-3.2 -12.46,-5.43l-0.17 0c-3.64,-1.62 -7.25,-3.22 -9.56,-4.15l-1.27 -0.83 -0.61 -0.11 -14.68 -5.38c-17.15,-6.28 -35.24,-12.93 -53.2,-17.41l-4.73 -1.82 -0.05 0.22c-2.28,-0.56 -4.56,-1.13 -7.5,-2.26l-6.46 -1.54 -11.6 -2.58 -3.55 -1.36 -0.05 0.25c-2.1,-0.4 -4.21,-0.83 -6.59,-1.53 -4.24,-0.76 -7.44,-1.97 -10.22,-3.12l-0.14 -0.02c-1.26,-0.42 0.19,0.24 -0.87,0.06 -2.5,-0.44 -5.01,-0.87 -7.92,-1.59 -1.81,-0.28 -3.59,-0.62 -5.36,-0.98l-0.8 -0.16 0 -0.19 -8.94 -1.27c-7.5,-2.14 -17.84,-3.5 -28.33,-4.82 -3.99,-0.21 -7.48,-0.79 -10.96,-1.38 -0.4,-0.06 0.34,-0.13 -0.23,-0.13 -5.67,0 -10.2,-0.57 -14.72,-1.13 -1.86,-0.23 -3.73,-0.47 -4.45,-0.47 -4.88,0 -9.41,-0.65 -13.94,-1.29l-2.03 -0.31c-5.67,0 -10.2,-0.57 -14.71,-1.13 -1.86,-0.23 -3.73,-0.47 -4.45,-0.47l-13.41 -2.32c-2.14,-0.72 -1.01,0.72 -4.16,0.72l-59.09 0c-4.57,0 -8.7,0.32 -12.82,0.63 -4.68,0.37 -9.37,0.73 -14.22,0.88 -8.16,1.67 -15.22,1.68 -20.86,1.68 -3.17,0 -5.51,0.24 -7.84,0.47 -5.63,0.57 -11.27,1.13 -16.11,1.13 -0.71,0 -1.77,0.15 -2.83,0.3 -3.79,0.54 -7.59,1.08 -12.07,1.24 -3.95,0.53 -7.76,0.9 -11.43,1.25 -2.63,0.25 -5.14,0.49 -8.52,1.17l-8.27 0.83 -2.03 0.3c-3.56,0.5 -7.13,1.02 -10.86,1.21l-30.66 4.38 -0.9 0.08c-3.62,0.9 -7.3,1.78 -12.46,1.97 -11.5,1.43 -23.03,3.94 -34.54,6.5 -4.63,1.4 -7.81,1.94 -10.99,2.46 -1.07,0.18 0.34,-0.47 -0.9,-0.06l-6.46 1.65 -3.67 0.61c-7.13,1.16 -15.02,2.46 -20.06,4.13l-10.66 3.08c-2.72,0.77 -5.45,1.56 -10.05,2.71l-3.48 0.66c-2.81,0.47 -6.27,1.26 -9.99,2.24 -5.57,1.47 -10.21,2.86 -13.9,4.09 -6.68,2.22 -8.03,2.6 -9.6,3.05 -3.96,1.13 -4.82,1.23 -6.37,1.74l-22.29 7.43c-7.09,8.89 -17.95,10.49 -29.52,10.79 -5.89,2.2 -11.82,4.28 -17.76,6.35 -7.15,2.5 -14.32,5.02 -21.62,7.92 -7.88,3.77 -13.3,5.59 -18.71,7.39 -0.45,0 -1.49,0.52 -1.95,0.71 -5.06,1.45 -9.77,2.98 -13.94,4.5 -5.24,1.9 -10.81,4.14 -16.22,6.45l-6.29 2.15c-1.65,0.41 -3.18,0.85 -4.81,1.44 -2.03,0.73 -3.4,1.26 -4.15,1.64l-2.32 1.16c-4.24,1.82 -8.4,3.6 -17.33,7.29l0.02 0.06c-4.77,1.97 -10.97,4.43 -19.65,7.68l-4.89 1.59 -0.17 0.17c-1.59,0.49 -1.19,-0.42 -2.31,0.33l-5.96 3.31 -51.33 23.33 -32.38 18.4c-80.94,46.01 -180.58,102.64 -270.38,154.3l-60.09 -52.64c67.8,-165.47 149.28,-323.68 243.21,-473.22 94.63,-150.65 201.76,-292.38 320.15,-423.75 288.64,-320.81 643.81,-581.16 1043.62,-759.42 384.98,-171.65 811.07,-267.12 1258.71,-267.12 125.29,0 249.25,7.52 371.23,21.96 123.96,14.67 246.45,36.76 366.75,65.6l0.33 0c140.34,34.68 277.35,78.75 410.2,131.77zm-2897.44 1446.38l1.75 0.01 -2.52 -0.36 -0.03 0.18 -0.03 0.16 0.84 0z"/>
    <path class="fil4 str1" d="M5977.45 2176.78c-3.2,-7.99 -4.79,-15.97 -7.99,-23.95 -185.25,-602.06 -552.55,-1124.26 -1036.43,-1504.34 -54.3,-43.12 -111.79,-83.04 -169.28,-122.97 -99.01,4.79 -204.42,27.15 -317.8,73.46 0,0 -1280.77,731.41 -1672.03,959.78 -477.49,229.96 -844.79,253.92 -1130.65,174.07 12.78,9.58 23.95,19.17 35.13,28.74 0,0 0,0 1.6,1.6 12.78,9.58 23.96,20.76 36.73,31.94 1.6,1.6 3.2,3.2 4.79,4.79 11.18,11.18 22.36,20.76 33.54,31.94 7.99,9.58 17.57,17.56 25.55,27.15 25.55,28.74 51.11,55.9 73.46,84.64 33.54,43.12 62.28,86.23 87.83,127.76l60.68 99.01 11.18 20.76c3.19,4.79 6.39,11.18 11.18,15.97 4.79,6.39 9.58,14.38 15.97,20.76 0,0 0,0 1.6,1.6 6.39,7.99 12.78,14.37 19.16,22.36 0,0 0,0 0,0 23.96,27.15 55.9,52.7 92.62,78.25 1.6,0 1.6,1.6 3.2,1.6 4.79,3.19 7.99,4.79 12.78,7.99 1.6,1.6 3.19,1.6 4.79,3.19 4.79,3.2 7.99,4.79 12.78,6.39 1.6,1.6 4.79,1.6 6.39,3.19 3.2,1.6 7.99,4.79 12.78,6.39 1.6,1.6 4.79,3.19 7.99,3.19 4.79,1.6 7.99,4.79 12.78,6.39 3.19,1.6 4.79,3.2 7.99,3.2 4.79,1.6 7.99,3.19 12.78,4.79 3.19,1.6 6.39,3.19 9.58,3.19 4.79,1.6 7.99,3.2 12.78,4.79 6.39,3.2 14.37,4.79 20.76,7.99 3.19,1.6 6.39,1.6 9.58,3.2 4.79,1.6 7.99,3.19 12.78,4.79 3.19,1.6 6.39,1.6 11.18,3.19 4.79,1.6 7.99,3.19 12.78,3.19 3.19,1.6 7.99,1.6 11.18,3.2 4.79,1.6 9.58,1.6 12.78,3.19 3.2,0 7.99,1.6 11.18,1.6 4.79,1.6 9.58,1.6 14.37,3.19 3.2,0 7.99,1.6 11.18,1.6 4.79,0 9.58,1.6 14.37,1.6 3.19,0 7.99,1.6 11.18,1.6 4.79,0 11.18,1.6 15.97,1.6 3.19,0 6.39,0 9.58,1.6 6.39,0 12.78,0 19.16,1.6 3.19,0 4.79,0 7.99,0 9.58,0 17.57,0 27.15,0 1.6,0 3.2,0 4.79,0 7.99,0 15.97,0 23.96,-1.6 3.19,0 6.39,0 9.58,-1.6 6.39,0 12.78,-1.6 19.16,-1.6 3.19,0 7.99,-1.6 11.18,-1.6 6.39,0 12.78,-1.6 17.57,-3.19 4.79,0 7.99,-1.6 12.78,-1.6 6.39,-1.6 11.18,-1.6 17.57,-3.19 4.79,-1.6 7.99,-1.6 12.78,-3.2 6.39,-1.6 12.78,-3.19 17.57,-4.79 4.79,-1.6 7.99,-1.6 12.78,-3.2 6.39,-1.6 12.78,-3.19 19.16,-4.79 4.79,-1.6 7.99,-1.6 12.78,-3.19 6.39,-1.6 14.38,-4.79 20.76,-6.39 3.2,-1.6 6.39,-1.6 11.18,-3.19 11.18,-3.2 20.76,-7.99 31.94,-12.78 0,0 962.97,-550.95 1258.41,-721.83 624.41,-300.23 998.1,-134.14 1231.26,100.61 36.73,36.73 68.67,73.46 99.01,111.79 54.3,70.27 99.01,142.13 137.34,204.42l23.95 41.52c6.39,12.78 15.97,25.55 27.15,38.33 41.52,51.11 108.6,107 196.43,145.32 81.44,36.73 182.05,59.09 295.44,49.51 -20.76,-54.3 -35.13,-110.2 -51.1,-164.49z"/>
    <path class="fil5" d="M6022.16 2342.87c-113.39,9.58 -213.99,-12.78 -295.44,-49.51 -87.83,-38.32 -154.91,-94.22 -196.43,-145.32 -11.18,-14.38 -20.76,-27.15 -27.15,-38.33l-23.95 -41.52c-36.73,-62.28 -81.44,-134.15 -137.34,-204.42 -28.74,-38.32 -62.28,-76.65 -99.01,-111.79 -233.15,-236.35 -606.85,-400.84 -1231.26,-100.61 -295.44,170.88 -1258.41,721.83 -1258.41,721.83 -11.18,4.79 -20.76,7.99 -31.94,12.78 -3.19,1.6 -6.39,1.6 -11.18,3.19 -6.39,3.2 -14.38,4.79 -20.76,6.39 -4.79,1.6 -7.99,3.19 -12.78,3.19 -6.39,1.6 -12.78,3.19 -19.17,4.79 -4.79,1.6 -7.99,1.6 -12.78,3.19 -6.39,1.6 -12.77,3.2 -17.56,4.79 -4.79,1.6 -7.99,1.6 -12.78,3.2 -6.39,1.6 -11.18,1.6 -17.57,3.19 -4.79,0 -7.99,1.6 -12.78,1.6 -6.39,1.6 -12.78,1.6 -17.57,3.19 -3.19,0 -7.99,1.6 -11.18,1.6 -6.39,0 -12.78,1.6 -19.17,1.6 -3.19,0 -6.39,0 -9.58,1.6 -7.99,0 -15.97,1.6 -23.95,1.6 -1.6,0 -3.2,0 -4.79,0 -9.58,0 -19.16,0 -27.15,0 -3.2,0 -4.79,0 -7.99,0 -6.39,0 -12.78,0 -19.17,-1.6 -3.19,0 -6.39,0 -9.58,-1.6 -4.79,0 -11.18,-1.6 -15.97,-1.6 -3.2,0 -7.99,-1.6 -11.18,-1.6 -4.79,0 -9.58,-1.6 -14.37,-1.6 -3.19,0 -7.99,-1.6 -11.18,-1.6 -4.79,-1.6 -9.58,-1.6 -14.38,-3.19 -3.19,0 -7.99,-1.6 -11.18,-1.6 -4.79,-1.6 -9.58,-1.6 -12.78,-3.19 -3.2,-1.6 -7.99,-1.6 -11.18,-3.2 -4.79,-1.6 -7.99,-1.6 -12.78,-3.19 -3.19,-1.6 -6.39,-1.6 -11.18,-3.2 -4.79,-1.6 -7.99,-3.19 -12.78,-4.79 -3.19,-1.6 -6.39,-1.6 -9.58,-3.2 -6.39,-3.19 -14.37,-4.79 -20.76,-7.99 -4.79,-1.6 -7.99,-3.19 -12.78,-4.79 -3.19,-1.6 -6.39,-3.19 -9.58,-3.19 -4.79,-1.6 -7.99,-3.2 -12.77,-4.79 -3.2,-1.6 -4.79,-3.2 -7.99,-3.2 -4.79,-1.6 -7.99,-3.19 -12.78,-6.39 -3.2,-1.6 -4.79,-3.2 -7.99,-3.2 -4.79,-1.6 -7.99,-4.79 -12.78,-6.39 -1.6,-1.6 -4.79,-1.6 -6.39,-3.19 -4.79,-1.6 -7.99,-4.79 -12.78,-6.39 -1.6,-1.6 -3.19,-1.6 -4.79,-3.19 -4.79,-3.2 -7.99,-4.79 -12.78,-7.99 -1.6,0 -1.6,-1.6 -3.19,-1.6 -36.73,-23.95 -67.07,-51.11 -92.62,-78.25 0,0 0,0 0,0 0,0 0,0 0,0 -6.39,-7.99 -12.78,-14.38 -19.16,-22.36 0,0 0,0 -1.6,-1.6 -6.39,-6.39 -11.18,-14.37 -15.97,-20.76 -3.2,-4.79 -7.99,-11.18 -11.18,-15.97l-11.18 -20.76 -60.69 -99.01c-25.55,-41.52 -55.89,-83.04 -87.83,-127.76 -15.97,-19.17 -31.94,-38.33 -47.91,-57.49 -7.99,-9.58 -15.97,-17.57 -23.96,-27.15 -7.99,-9.58 -17.57,-17.57 -25.55,-27.15 -11.18,-11.18 -22.36,-20.76 -33.54,-31.94 -1.6,-1.6 -3.19,-3.2 -4.79,-4.79 -11.18,-11.18 -23.96,-20.76 -36.73,-31.94 0,0 0,0 -1.6,-1.6 -11.18,-9.58 -23.96,-19.17 -36.73,-28.75 -15.97,-11.18 -30.34,-22.35 -47.91,-33.53 -28.75,-19.17 -59.09,-36.73 -91.03,-51.11 0,0 -1.6,0 -1.6,-1.6 -7.99,-3.19 -14.38,-6.39 -22.36,-9.58 -1.6,0 -3.2,-1.6 -4.79,-1.6 -7.99,-3.19 -14.37,-6.39 -22.36,-9.58 -1.6,0 -1.6,0 -3.19,-1.6 -22.36,-9.58 -46.31,-17.57 -71.86,-23.96 -3.2,-1.6 -6.39,-1.6 -9.58,-3.19 -6.39,-1.6 -12.78,-3.2 -20.76,-4.79 -3.2,-1.6 -7.99,-1.6 -11.18,-3.2 -1.6,0 -3.19,-1.6 -4.79,-1.6 -4.79,-1.6 -9.58,-1.6 -14.37,-3.2 3.19,-3.19 -1.6,-4.79 -4.8,-4.79 -12.78,-1.6 -23.95,-4.79 -36.73,-6.39 -4.79,0 -9.58,-1.6 -14.38,-1.6 -6.39,-1.6 -12.78,-1.6 -19.16,-1.6 -4.79,0 -11.18,-1.6 -15.97,-1.6 -6.39,0 -12.78,-1.6 -19.16,-1.6 -6.39,0 -12.78,0 -17.57,-1.6 -6.39,0 -12.78,0 -17.57,0 -6.39,0 -11.18,0 -17.57,0 -1.6,0 -3.19,0 -4.79,0 -6.39,0 -12.78,0 -19.16,0 -11.18,0 -20.76,0 -31.94,1.6 -4.79,0 -11.18,0 -15.97,1.6 -7.99,0 -15.97,1.6 -23.95,1.6 -6.39,0 -11.18,1.6 -17.57,1.6 -7.99,1.6 -15.97,1.6 -25.55,3.2 -4.79,0 -11.18,1.6 -15.97,1.6 -11.18,1.6 -22.36,3.2 -33.54,4.79 -3.19,0 -6.39,1.6 -9.58,1.6 -14.37,3.19 -28.74,4.79 -43.12,7.99 -4.79,1.6 -9.58,1.6 -14.37,3.19 -9.58,1.6 -19.17,4.79 -30.34,6.39 -6.39,1.6 -11.18,3.19 -17.57,4.79 -9.58,3.19 -20.76,4.79 -30.34,7.99 -4.79,1.6 -11.18,3.19 -15.97,4.79 -14.37,4.79 -28.74,9.58 -43.12,14.37 -1.6,0 -3.19,0 -3.19,1.6 -15.97,4.79 -31.94,11.18 -47.91,17.57 -4.79,1.6 -9.58,3.19 -15.97,6.39 -11.18,4.79 -23.96,9.58 -35.13,12.78 -6.39,1.6 -11.18,4.79 -17.57,6.39 -11.18,4.79 -23.95,9.58 -35.13,14.38 -4.79,1.6 -11.18,4.79 -15.97,6.39 -17.57,7.99 -35.13,15.97 -52.7,23.96 -83.04,47.91 -190.04,108.59 -305.02,174.07 -146.93,356.13 -226.78,747.38 -226.78,1154.61 0,202.82 20.76,400.84 57.49,592.47 51.11,263.5 137.34,514.22 252.32,747.38 300.23,-174.07 627.61,-362.51 629.2,-364.11 951.79,-522.21 1421.3,-23.96 1628.91,309.81 7.99,9.58 12.78,22.36 19.16,31.94l0 0c3.2,4.79 4.79,7.99 6.39,11.18l23.95 38.32c100.61,153.31 260.31,252.33 450.35,247.54 105.4,-1.6 175.67,-36.73 279.47,-94.22l1076.35 -624.41c0,0 1.6,0 1.6,-1.6 780.91,-427.99 1244.04,-159.7 1497.95,134.14 51.11,-140.53 91.03,-284.26 119.77,-434.37 4.79,-22.36 7.99,-43.12 12.78,-65.48 30.34,-172.47 46.31,-349.74 46.31,-531.78 3.19,-241.15 -25.55,-477.5 -79.85,-705.86z"/>
    <path class="fil6" d="M5988.94 2387.16c-43.81,1.25 -85.79,-1.93 -125.57,-8.59 -56.4,-9.45 -108.09,-25.92 -154.03,-46.64 -43.86,-19.23 -82.99,-42.56 -116.78,-67.56 -38.89,-28.77 -70.86,-59.91 -95.04,-89.68l-0.66 -0.66c-4.63,-5.95 -9.57,-12.47 -16.2,-21.69 -5.81,-8.09 -10.7,-15.36 -14.27,-21.61l0.12 -0.07 -23.65 -41.01 -0.09 0.05c-18.67,-31.66 -38.95,-65.12 -60.33,-97.55 -21.74,-33 -46.11,-67.37 -73.7,-102.06l-0.66 -0.99c-13.95,-18.6 -29.12,-37.24 -45.31,-55.51 -15.88,-17.93 -32.32,-35.12 -49.07,-51.14l-0.99 -0.83c-111.07,-112.59 -255.33,-208.01 -445.57,-239.44 -192.34,-31.77 -432.7,1.22 -735.04,146.17 -306.2,177.09 -1255.18,720.05 -1257.91,721.61l-4.47 2.15c-3.81,1.63 -10.64,4.27 -17.47,6.89 -3.18,1.22 -6.34,2.43 -12.22,4.93 -6.38,3.17 -10.62,4.11 -15.52,5.18l-0.46 0.05c-7.76,3.3 -15.02,5.05 -21.57,6.62l-1.77 0.49 0 0.16c-5.79,2.07 -10.79,3.86 -18.35,4.47l-14.75 3.69c-3.13,0.88 -5.77,1.41 -8.4,1.94l-0.16 0.17c-1.18,0.23 -0.14,-0.26 -1.23,0.1 -0.68,0.24 -2.59,1.05 -3.2,1.05 -6.14,1.53 -12.25,3.07 -14.21,3.69l0.01 0.05c-5.84,1.96 -8.7,2.53 -11.53,3.09 -1.36,0.27 -0.09,-0.33 -1.41,0.11l-2.98 0.99c-5.21,1.3 -9.16,1.87 -13.09,2.43 -1.65,0.24 -3.32,0.48 -4.48,0.76l-8.38 1.08 0.01 0.05 -1.78 0.18 0.92 -0.01c-2.73,0.54 -5.49,1.07 -8.56,1.37 -2.94,0.53 -5.82,0.91 -8.6,1.28 -1.22,0.16 0.44,-0.62 -0.97,-0.15l-10.61 1.85 0.05 0.26 -0.09 -0.26 -2.52 0.44 1.77 -0.01c-4.19,0.84 -8.43,1.63 -13.03,1.63 -0.72,0 -2.59,0.24 -4.45,0.47 -4.52,0.56 -9.05,1.13 -14.72,1.13 -0.15,0 -0.14,-0.05 0,-0.14 0.37,-0.25 1.72,-0.82 3.33,-1.43l-3.33 0.82 -9.58 2.35c-3.17,0 -5.51,0.24 -7.84,0.47 -5.65,0.56 -11.31,1.13 -16.12,1.13l-39.92 0c-7.3,0 -14.6,-0 -23.48,-1.63 -4.31,-0.11 -8.85,-0.52 -14.28,-2.18l-6.96 -0.98c-4.61,0 -8.84,-0.79 -13.03,-1.63l-0.8 -0.16 -0.03 0.13 0.83 0.03 -0.84 0c-4.19,-0.23 -7.82,-0.83 -11.45,-1.43 -0.4,-0.06 0.33,-0.13 -0.24,-0.13 -4.6,0 -8.84,-0.79 -13.03,-1.63l1.77 0.01 -2.52 -0.44 -0.05 0.26 0.02 -0.27 -10.61 -1.85c-1.24,-0.41 0.17,0.24 -0.9,0.06 -2.38,-0.39 -4.77,-0.79 -7.76,-1.56 -1.86,-0.28 -3.69,-0.64 -5.51,-1l1.77 0.01 -2.52 -0.44 -0.05 0.26 0.02 -0.27 -10.61 -1.85 -0.59 -0.18 -0.04 0.06 0.01 -0.06c-0.12,-0.02 -0.09,0.01 -0.01,0.06l0.04 -0.06 -0.01 0.08c0.2,0.14 0.6,0.37 -0.05,0.26l0 -0.16c-4.18,-0.75 -8.06,-1.46 -12.83,-3.31 -3.33,-0.66 -6.68,-1.34 -11.19,-3.16 -0.02,0.05 -0.13,0.1 -0.72,-0.02 -2.61,-0.52 -5.24,-1.05 -11.35,-3.08l-1.34 -0.55 -0.02 0.11c-2.08,-0.44 -4.41,-0.96 -9.82,-2.75 -3.82,-1.27 -6.26,-2.25 -8.71,-3.22l-0.17 0 -5.54 -2.23 -0.01 0.06 -0.17 0c-3.57,-0.89 -7.16,-1.79 -13.39,-4.91 -0.51,-0.25 -2.63,-0.97 -4.74,-1.67l-0.16 0c-3.92,-1.31 -7.85,-2.61 -12.52,-4.72 -2.68,-0.94 -4.66,-1.73 -6.61,-2.51 -1.56,-0.62 -3.1,-1.24 -4.05,-1.56l-5.46 -2.32 -0.37 -0.22 -3.75 -0.65c-3.83,-1.28 -6.28,-2.26 -8.68,-3.22l-4.09 -1.57 -5.46 -2.32 -1.4 -0.71 -0.96 -0.17c-4.33,-1.44 -8.07,-2.95 -11.95,-4.88l-0.07 0.13c-2.99,-1.49 -5.7,-3.03 -8.49,-4.79l-0.26 -0.04c-7.09,-2.36 -10.97,-4.68 -14.83,-7.01l0.27 -0.46 -1.08 -0.65c0.14,0.2 0.05,0.25 -0.35,0.12l-0.16 0c-3.47,-1.16 -6.96,-2.33 -10.84,-4.69 -2.65,-1.29 -4.83,-2.59 -7.01,-3.9l0 -0c0.09,0.01 2.17,0.68 2.63,0.82l-0.58 -0.2 -1.78 -1.08 -5.7 -3.45 -0.19 -0.11 -3.91 -2.36c1.56,1.18 3,2.32 3.64,2.92l0.17 0.16c0.26,0.26 0.27,0.35 -0.09,0.17l-0.16 -0.17c-3.05,-1.52 -6.1,-3.05 -9.61,-5.89l-1.98 -1.19c-5.2,-1.74 -8.87,-4.32 -12.07,-7.19 -19.69,-12.92 -37.55,-26.54 -53.81,-40.47 -16.67,-14.29 -31.73,-28.92 -45.43,-43.46l-2.15 -2.65 -8.27 -9.37c-2.66,-2.99 -5.35,-6.02 -8.8,-10.23l-0.71 -0.71c-6.48,-6.48 -11.59,-13.79 -16.38,-20.64l-16.07 -22.54 -1.98 -3.48 -10.73 -19.94 -59.9 -97.72 -0.07 0.04c-21.61,-35.12 -47.2,-70.84 -74.28,-108.65l0 -0.17 -11.37 -15.89 -46.44 -55.73c-1.75,-2.1 -6.32,-7.14 -10.8,-12.07 -3.51,-3.86 -7.02,-7.73 -13.16,-15.09 -1.51,-1.81 -5.91,-6.21 -10.29,-10.59 -3.8,-3.8 -7.61,-7.61 -12.76,-13.59 -6.77,-6.73 -11.21,-10.84 -15.65,-14.98 -5.56,-5.17 -11.14,-10.35 -17.74,-16.94l-4.87 -4.87 -0.08 0.08c-7.17,-7.17 -13.63,-12.54 -20.27,-18.06 -5.12,-4.25 -10.31,-8.56 -14.31,-12.07l-2.15 -1.82 -1.29 -1.29c-4.53,-3.81 -9.2,-7.53 -13.93,-11.2 -7.72,-5.98 -12.93,-9.88 -18.13,-13.79 -10.43,-7.31 -13.1,-9.24 -15.45,-10.94 -10.52,-7.62 -21.07,-15.26 -30.14,-21.03l-0.83 -0.5c-13.37,-8.91 -27.25,-17.53 -41.67,-25.69 -12.84,-7.27 -26.25,-14.17 -40.26,-20.58 -4.64,-1.44 -9.79,-3.71 -14.48,-7.32l-0.99 -0.44 -0.17 0 -5.48 -2.4c-3.05,-0.84 -5.56,-1.97 -7.98,-3.15l-0.8 -0.16c-5.7,-2.27 -9.32,-3.88 -12.87,-5.46l0.03 -0.06 -2.22 -0.98c-9.06,-0.27 -12.12,-1.6 -18.99,-8.13 -8.15,-3.32 -16.13,-6.29 -23.9,-8.88 -10.01,-3.34 -21.41,-6.61 -34.15,-9.79l-4.58 -1.76 -0.04 0.17 -0.16 -0.04 0.05 -0.19 -2.56 -0.99 2.41 1.15c-2.23,-0.55 -4.48,-1.13 -7.24,-2.17l-6.58 -1.59c-2.26,-0.53 -5.25,-1.18 -9.65,-2.06l-5.52 -1.98 -1.49 -0.54 -0.53 -0.04 1.96 0.95c-2.46,-0.48 -4.91,-0.97 -7.83,-1.91 -2.91,-0.71 -5.33,-1.69 -7.6,-2.74l-0.09 -0.01c-0.88,-0.29 0.15,0.17 -0.58,0.05l-0.17 0c-3.71,-0.62 -7.44,-1.24 -13.46,-3.25l-21.37 -7.12c-3.57,-0.7 -7.06,-1.37 -10.29,-1.84 -3.9,-0.23 -7.34,-0.8 -10.76,-1.36 -0.41,-0.07 0.34,-0.14 -0.24,-0.14l-10.26 -1.33c-0.45,-0.11 -1.15,-0.19 -1.97,-0.24l-6.93 -0.03c-4.9,0 -9.43,-0.65 -13.94,-1.3l-2.03 -0.3c-5.67,0 -10.2,-0.57 -14.71,-1.13 -1.86,-0.23 -3.73,-0.47 -4.45,-0.47 -7.13,0 -14.28,0 -22.28,-1.6l-54.38 0c-9.83,0 -18.26,0 -25.98,1.11l-5.96 0.49c-2.09,0 -0.57,-1.44 -2.73,-0.72l-13.24 2.32c-3.17,0 -5.51,0.24 -7.84,0.47 -5.63,0.57 -11.27,1.13 -16.11,1.13 -0.71,0 -1.77,0.15 -2.83,0.3 -3.39,0.48 -6.77,0.97 -10.65,1.18 -3.99,0.59 -8.38,1.01 -12.93,1.44 -3.07,0.29 -6.28,0.6 -9.92,1.2l-6.78 0.66 -2.03 0.3c-3.56,0.5 -7.13,1.02 -10.86,1.21l-30.66 4.38 -0.92 0.08c-3.01,0.75 -6.08,1.49 -10.01,1.83 -7.41,1.55 -13.3,2.54 -19.19,3.52 -6.61,1.1 -13.21,2.2 -17.94,3.18 -4.54,1.36 -7.69,1.89 -10.84,2.41 -1.06,0.17 0.35,-0.47 -0.89,-0.06l-6.29 1.65c-4.07,0.68 -7.07,1.4 -10.15,2.14 -6.01,1.45 -12.24,2.95 -18.41,3.98l-5.96 1.68c-2.71,0.77 -5.51,1.57 -10.08,2.71 -6.09,1.88 -11.05,3.02 -15.98,4.16 -4.38,1.01 -8.77,2.02 -11.22,2.84l-0.16 0c-6.68,2.22 -8.03,2.6 -9.6,3.05 -3.96,1.13 -4.82,1.23 -6.37,1.74l-17.18 5.73 0 1.67 -30.29 9.07c-8,2.4 -14.93,4.8 -21.31,7.19 -5.39,2.02 -14.17,5.54 -22.96,9.05l-2.48 0.83c-3.31,1.1 -6.63,2.21 -10.34,4.06l-2.32 1.16c-6.28,2.69 -13.27,5.47 -20.53,8.11 -7.26,2.64 -13.97,4.89 -19.57,6.49l-1.32 0.33 -2.34 1.05 -0.16 0c-3.55,1.52 -7.1,3.04 -11.61,4.39 -4.79,2 -10.16,4.16 -15.52,6.3 -5.52,2.21 -11.04,4.42 -16.78,6.88l-3.31 1.16 -4.54 1.97 0.02 0.06c-2.15,0.92 -4.37,1.87 -7.93,3.14l-51.17 23.26c-72.77,41.97 -145.75,83.49 -225.15,128.67l-64.61 36.77c-70.32,172.91 -124.7,354.42 -161.59,542.27 -37.07,188.74 -56.37,383.78 -56.37,582.82 0,98.96 4.87,195.79 14.04,290.4 9.61,98.97 24.03,197.11 42.62,294.12 24.96,128.68 58.33,254.07 99.36,375.6 37.05,109.75 80.46,216.67 129.63,320.31 136.18,-78.9 274.76,-158.96 383.34,-221.67 118.64,-68.53 194.75,-110.04 197.69,-112.98l9.6 -7.12c488.82,-268.2 856.3,-273.39 1128.94,-168.4 272.81,105.05 448.03,319.35 555.38,491.58 6.28,8.15 10.34,15.82 14.27,23.27 1.83,3.45 3.62,6.85 5.09,9.05 3.43,5.24 5.56,9.13 7.4,12.74l23.09 36.94c47.94,73.02 110.08,132.64 182.8,172.61 68.48,37.64 146.55,58 231.15,55.88l0.5 0c47.13,-0.71 86.68,-9.03 126.26,-23.67 41.18,-15.23 82.84,-37.38 132.53,-64.9l1056.76 -613.08 0 -1.39 22.02 -12.07c400.47,-219.48 721.34,-260.05 975.4,-207.91 226.23,46.42 398.31,165.9 526.37,298.42 15.99,-47.62 30.69,-95.62 44.09,-144.14 19.54,-70.75 36.44,-143.11 50.67,-217.47l0.17 -0.83c2.74,-12.8 4.48,-22.17 6.22,-31.58 2.13,-11.54 4.27,-23.03 6.24,-32.4 15.04,-85.61 26.53,-172.59 34.22,-260.92 7.54,-86.65 11.42,-174.52 11.42,-263.58l0.16 -0.49c1.53,-116.31 -4.55,-231.99 -17.51,-346.58 -11.98,-105.91 -29.96,-210.86 -53.34,-314.5zm-5042.91 -844.7l-1.29 0.04 0.03 0.12 1.26 -0.16zm402.42 10.33c-1.7,-0.76 -4.11,-1.88 -4.32,-2.03l-0.02 0.1 2.64 1.3c0.27,0.13 0.37,0.23 0.34,0.29l1.36 0.34zm28.76 6.66l1.72 0.66 -1.69 -0.79 -0.15 -0.08 -0.04 0.15 0.15 0.06zm850.27 766.38c-0.33,-0.13 -0.96,-0.42 -0.03,0.05l0.03 -0.05zm72.81 28.7l0.09 0.04 -0.09 -0.04zm-20.49 81.96l-0.42 -0.19 0.42 0.19zm0.15 0.07l-0.14 -0.08 0.14 0.08zm87.42 -62.5l1.92 0.34 0.05 -0.25 -1.97 -0.09zm214.66 3.29l0.43 -0.03 -0.43 0.03zm90.24 -20.55l0.31 -0.11 -0.36 -0.01 0.05 0.12z"/>
   </g>
  </g>
  <path class="fil7" d="M3051.12 0c1685.09,0 3051.12,1366.04 3051.12,3051.12 0,1685.09 -1366.04,3051.12 -3051.12,3051.12 -1685.09,0 -3051.12,-1366.04 -3051.12,-3051.12 0,-1685.09 1366.04,-3051.12 3051.12,-3051.12z"/>
 </g>
</svg>
